<mxfile host="app.diagrams.net" modified="2024-04-12T03:33:50.388Z" agent="Mozilla/5.0 (Windows NT 10.0; Win64; x64) AppleWebKit/537.36 (KHTML, like Gecko) Chrome/123.0.0.0 Safari/537.36" version="24.2.1" etag="UL5kRT3RaEkj0MLc2k9y" type="github">
  <diagram name="第1頁" id="owS1Ftch1K6Cu_4Nm-oV">
    <mxGraphModel>
      <root>
        <mxCell id="0" />
        <mxCell id="1" parent="0" />
      </root>
    </mxGraphModel>
  </diagram>
</mxfile>
